# xmcd CD database file
#
# Track frame offsets:
#	150
#	23100
#	48605
#	71225
#	113542
#	138397
#	162725
#	188905
#	208592
#	229315
#
# Disc length: 3513 seconds
#
# Revision: 0
# Processed by: cddbd v1.5.2PL0 Copyright (c) Steve Scherf et al.
# Submitted via: CDex 1.51
#
DISCID=940db70a
DTITLE=CalArts - Jazz 97
DYEAR=1900
DGENRE=Jazz
TTITLE0=Changes in teh CAse
TTITLE1=Vale Todo
TTITLE2=For Carmen
TTITLE3=Open House
TTITLE4=Atenu Akpoe Gake Mega de Asi Enu o
TTITLE5=Kulu
TTITLE6=Some Birds Like to Fly
TTITLE7=Building
TTITLE8=On the Verge
TTITLE9=Vessel
EXTD=
EXTT0=
EXTT1=
EXTT2=
EXTT3=
EXTT4=
EXTT5=
EXTT6=
EXTT7=
EXTT8=
EXTT9=
PLAYORDER=
